# File created by Blade
# Date/Time:  Tue Jan 27 18:09:10 2015
# Frame Rate: 120.000 fps
#------------------------------------------------------
:FULLY-SPECIFIED
:DEGREES
3208
root -1.591133 31.917250 -6.760315 5.868690 1.752807 2.436054
Spine -4.171329 -19.993703 -2.707341
Head 25.222179 19.274315 1.114563
LeftShoulder -17.077427 18.894131 2.908120
LeftArm 24.824822 37.031373 -71.223924
LeftForeArm -1.708953 -0.000000 18.055061
LeftHand -11.646425 -0.000000 -1.834002
LeftHandThumb1 -26.253704 0.000000 33.147579
RightShoulder -15.371151 1.328238 -32.418498
RightArm -16.320307 69.886280 29.517106
RightForeArm 36.720082 -0.000000 91.918976
RightHand -7.822508 -0.000000 1.596594
RightHandThumb1 -24.326973 -0.000000 -32.862282
LeftUpLeg -1.330453 3.124456 -0.487140
LeftLeg 0.685519 -0.000000 -0.000000
LeftFoot -18.295396 17.823514 -25.370701
LeftToeBase 8.653689 -0.000000 -0.000000
RightUpLeg -0.411607 -0.307426 -3.131142
RightLeg -2.836418 -0.000000 0.000000
RightFoot -13.744377 -12.285451 9.470903
RightToeBase 4.830828 -0.000000 -0.000000
3209
root -1.592299 31.917454 -6.763185 5.872591 1.717755 2.426516
Spine -4.158068 -20.016072 -2.722200
Head 25.241912 19.241949 1.141728
LeftShoulder -17.087310 18.900224 2.914914
LeftArm 24.793059 36.933343 -71.331916
LeftForeArm -1.819080 -0.000000 18.010092
LeftHand -11.648328 -0.000000 -1.767439
LeftHandThumb1 -26.253704 0.000000 33.147579
RightShoulder -15.379568 1.353872 -32.415637
RightArm -16.298784 69.886105 29.535055
RightForeArm 36.775658 0.000000 91.845067
RightHand -7.849690 -0.000000 1.483800
RightHandThumb1 -24.326973 -0.000000 -32.862282
LeftUpLeg -1.336628 3.157874 -0.477955
LeftLeg 0.687716 -0.000000 -0.000000
LeftFoot -18.306873 17.803693 -25.394876
LeftToeBase 8.676235 -0.000000 -0.000000
RightUpLeg -0.433628 -0.299400 -3.122077
RightLeg -2.822176 -0.000000 0.000000
RightFoot -13.746350 -12.264888 9.475811
RightToeBase 4.863049 -0.000000 -0.000000
3210
root -1.592950 31.917786 -6.765420 5.875124 1.669194 2.418209
Spine -4.148340 -20.011103 -2.736272
Head 25.272556 19.209712 1.171704
LeftShoulder -17.085813 18.905892 2.912884
LeftArm 24.785250 36.885711 -71.376510
LeftForeArm -1.899017 -0.000000 17.978297
LeftHand -11.633088 -0.000000 -1.741324
LeftHandThumb1 -26.253704 0.000000 33.147579
RightShoulder -15.373094 1.430310 -32.449661
RightArm -16.480382 69.862560 29.397784
RightForeArm 36.808095 -0.000000 91.775599
RightHand -7.813377 -0.000000 1.388853
RightHandThumb1 -24.326973 -0.000000 -32.862282
LeftUpLeg -1.332811 3.169116 -0.473829
LeftLeg 0.674355 -0.000000 -0.000000
LeftFoot -18.312821 17.854004 -25.386949
LeftToeBase 8.665295 -0.000000 -0.000000
RightUpLeg -0.451708 -0.295150 -3.116806
RightLeg -2.822394 -0.000000 0.000000
RightFoot -13.713667 -12.188499 9.567187
RightToeBase 4.768681 -0.000000 -0.000000
3211
root -1.593497 31.917969 -6.768384 5.874926 1.620229 2.413156
Spine -4.133747 -20.012821 -2.755180
Head 25.296259 19.186015 1.205740
LeftShoulder -17.095784 18.904785 2.908819
LeftArm 24.782786 36.841355 -71.419204
LeftForeArm -1.992894 -0.000000 17.939308
LeftHand -11.623613 -0.000000 -1.670440
LeftHandThumb1 -26.253704 0.000000 33.147579
RightShoulder -15.357461 1.473825 -32.466388
RightArm -16.607174 69.896100 29.304639
RightForeArm 36.845117 -0.000000 91.718300
RightHand -7.874548 -0.000000 1.396033
RightHandThumb1 -24.326973 -0.000000 -32.862282
LeftUpLeg -1.340669 3.230274 -0.474531
LeftLeg 0.690168 -0.000000 -0.000000
LeftFoot -18.313253 17.840957 -25.371659
LeftToeBase 8.662905 -0.000000 -0.000000
RightUpLeg -0.468125 -0.269326 -3.115432
RightLeg -2.812761 -0.000000 0.000000
RightFoot -13.716228 -12.192158 9.501715
RightToeBase 4.853211 -0.000000 -0.000000
3212
root -1.595032 31.917943 -6.770908 5.875941 1.565289 2.404785
Spine -4.125276 -20.000105 -2.776594
Head 25.337877 19.155801 1.256287
LeftShoulder -17.096240 18.899669 2.912760
LeftArm 24.782565 36.811045 -71.458358
LeftForeArm -2.041174 -0.000000 17.885836
LeftHand -11.634721 -0.000000 -1.606410
LeftHandThumb1 -26.253704 0.000000 33.147579
RightShoulder -15.307469 1.533064 -32.485829
RightArm -16.940597 69.900934 29.023001
RightForeArm 36.924772 -0.000000 91.676697
RightHand -7.931987 -0.000000 1.418795
RightHandThumb1 -24.326973 -0.000000 -32.862282
LeftUpLeg -1.335923 3.253840 -0.468747
LeftLeg 0.681746 -0.000000 -0.000000
LeftFoot -18.327254 17.866007 -25.385087
LeftToeBase 8.662665 -0.000000 -0.000000
RightUpLeg -0.484653 -0.263010 -3.107237
RightLeg -2.812798 -0.000000 0.000000
RightFoot -13.691185 -12.163244 9.453382
RightToeBase 4.852675 -0.000000 -0.000000
